<?xml version="1.0" encoding="UTF-8" standalone="no"?>
<!DOCTYPE svg PUBLIC "-//W3C//DTD SVG 1.1//EN" "http://www.w3.org/Graphics/SVG/1.1/DTD/svg11.dtd">
<svg width="100%" height="100%" viewBox="0 0 2560 1440" version="1.1" xmlns="http://www.w3.org/2000/svg" xmlns:xlink="http://www.w3.org/1999/xlink" xml:space="preserve" xmlns:serif="http://www.serif.com/" style="fill-rule:evenodd;clip-rule:evenodd;stroke-linejoin:round;stroke-miterlimit:2;">
    <g transform="matrix(2.72621,0,0,2.46725,-1094.36,-660.044)">
        <circle cx="703" cy="400.53" r="159" style="fill:rgb(248,109,112);"/>
    </g>
    <g transform="matrix(3.19809,0,0,2.26215,-1082.32,-390.928)">
        <path d="M884,763.24L875.87,793.17C872.743,804.685 862.212,812.739 850.28,812.74L346.28,812.74C334.348,812.739 323.817,804.685 320.69,793.17L312.56,763.24C305.48,737.16 324,710.53 351,709.32C351.66,709.32 352.32,709.27 353,709.27L843.61,709.27C844.28,709.27 844.94,709.27 845.61,709.32C872.58,710.53 891.1,737.16 884,763.24Z" style="fill:rgb(63,61,86);fill-rule:nonzero;"/>
    </g>
    <g transform="matrix(2.53125,0,0,2.66252,-1068.38,-647.909)">
        <path d="M835.18,722.89C835.18,755.22 725.46,781.43 590.12,781.43C454.78,781.43 345.06,755.22 345.06,722.89C345.06,718.19 347.37,713.63 351.73,709.27L828.51,709.27C832.86,713.63 835.18,718.19 835.18,722.89Z" style="fill-opacity:0.1;fill-rule:nonzero;"/>
    </g>
    <g transform="matrix(2.16559,0,0,2.04078,-939.146,-341.403)">
        <path d="M901.89,589.62C901.89,565.74 879.94,546.38 852.89,546.38C825.84,546.38 803.89,565.74 803.89,589.62C776.83,589.62 754.89,608.99 754.89,632.87C754.89,656.75 776.84,676.12 803.89,676.12C812.403,676.15 820.803,674.162 828.4,670.32C843.807,678.044 861.993,678.044 877.4,670.32C884.997,674.162 893.397,676.15 901.91,676.12C928.98,676.12 950.91,656.75 950.91,632.87C950.91,608.99 929,589.62 901.89,589.62Z" style="fill:rgb(108,99,255);fill-rule:nonzero;"/>
    </g>
    <g transform="matrix(2.16559,0,0,2.04078,-939.146,-341.403)">
        <path d="M901.89,589.62C901.89,565.74 879.94,546.38 852.89,546.38C825.84,546.38 803.89,565.74 803.89,589.62C776.83,589.62 754.89,608.99 754.89,632.87C754.89,656.75 776.84,676.12 803.89,676.12C812.403,676.15 820.803,674.162 828.4,670.32C843.807,678.044 861.993,678.044 877.4,670.32C884.997,674.162 893.397,676.15 901.91,676.12C928.98,676.12 950.91,656.75 950.91,632.87C950.91,608.99 929,589.62 901.89,589.62Z" style="fill-opacity:0.1;fill-rule:nonzero;"/>
    </g>
    <g transform="matrix(2.90251,0,0,2.68472,-1439.63,-721.871)">
        <path d="M786.07,370.75C786.076,364.751 784.978,358.802 782.83,353.2C802.388,346.27 815.538,327.659 815.538,306.91C815.538,279.97 793.37,257.801 766.43,257.8C766.421,230.865 744.255,208.706 717.32,208.706C694.68,208.706 674.832,224.362 669.56,246.38L668.21,246.38C668.21,246.365 668.21,246.351 668.21,246.336C668.21,219.401 646.045,197.236 619.11,197.236C595.594,197.236 575.217,214.131 570.86,237.24C562.21,230.442 551.522,226.744 540.52,226.744C513.585,226.744 491.42,248.909 491.42,275.844C491.42,275.846 491.42,275.848 491.42,275.85C464.511,275.888 442.389,298.041 442.389,324.95C442.389,341.477 450.733,356.933 464.55,366C463.918,369.178 463.6,372.41 463.6,375.65C463.592,375.65 463.585,375.65 463.577,375.65C436.636,375.65 414.467,397.819 414.467,424.76C414.467,451.701 436.636,473.87 463.577,473.87C472.204,473.87 480.681,471.597 488.15,467.28C503.326,476.042 522.084,476.042 537.26,467.28C555.887,478.038 579.516,475.357 595.26,460.7C596.11,460.7 596.96,460.77 597.82,460.77C606.444,460.777 614.918,458.503 622.38,454.18C633.343,460.536 646.361,462.384 658.66,459.33C674.354,470.914 695.524,472.095 712.41,462.33C727.586,471.092 746.344,471.092 761.52,462.33C768.989,466.647 777.466,468.92 786.093,468.92C813.034,468.92 835.203,446.751 835.203,419.81C835.203,392.869 813.034,370.7 786.093,370.7C786.085,370.7 786.078,370.7 786.07,370.7L786.07,370.75ZM561.81,375.66C561.807,373.546 561.667,371.435 561.39,369.34C562.65,368.75 563.89,368.13 565.09,367.43C567.051,368.578 569.093,369.58 571.2,370.43C568.778,372.001 566.497,373.777 564.38,375.74C563.53,375.68 562.67,375.66 561.81,375.66Z" style="fill:rgb(108,99,255);fill-rule:nonzero;"/>
    </g>
    <g transform="matrix(2.90251,0,0,2.68472,-1439.63,-721.871)">
        <path d="M763.7,506.07C763.339,482.049 743.479,462.485 719.455,462.485C695.431,462.485 675.571,482.049 675.21,506.07C675.202,506.07 675.193,506.07 675.185,506.07C650.91,506.07 630.935,526.045 630.935,550.32C630.935,574.595 650.91,594.57 675.185,594.57C682.96,594.57 690.599,592.521 697.33,588.63C711,596.539 727.91,596.539 741.58,588.63C748.302,592.508 755.927,594.55 763.688,594.55C787.957,594.55 807.928,574.579 807.928,550.31C807.928,526.045 787.965,506.077 763.7,506.07Z" style="fill:rgb(108,99,255);fill-rule:nonzero;"/>
    </g>
    <g transform="matrix(2.90251,0,0,2.68472,-1439.63,-721.871)">
        <path d="M763.7,506.07C763.339,482.049 743.479,462.485 719.455,462.485C695.431,462.485 675.571,482.049 675.21,506.07C675.202,506.07 675.193,506.07 675.185,506.07C650.91,506.07 630.935,526.045 630.935,550.32C630.935,574.595 650.91,594.57 675.185,594.57C682.96,594.57 690.599,592.521 697.33,588.63C711,596.539 727.91,596.539 741.58,588.63C748.302,592.508 755.927,594.55 763.688,594.55C787.957,594.55 807.928,574.579 807.928,550.31C807.928,526.045 787.965,506.077 763.7,506.07Z" style="fill-opacity:0.1;fill-rule:nonzero;"/>
    </g>
    <g transform="matrix(2.90251,0,0,2.68472,-1439.63,-721.871)">
        <path d="M786.07,370.75C786.076,364.751 784.978,358.802 782.83,353.2C802.388,346.27 815.538,327.659 815.538,306.91C815.538,279.97 793.37,257.801 766.43,257.8C766.421,230.865 744.255,208.706 717.32,208.706C694.68,208.706 674.832,224.362 669.56,246.38L668.21,246.38C668.21,246.365 668.21,246.351 668.21,246.336C668.21,219.401 646.045,197.236 619.11,197.236C595.594,197.236 575.217,214.131 570.86,237.24C562.21,230.442 551.522,226.744 540.52,226.744C513.585,226.744 491.42,248.909 491.42,275.844C491.42,275.846 491.42,275.848 491.42,275.85C464.511,275.888 442.389,298.041 442.389,324.95C442.389,341.477 450.733,356.933 464.55,366C463.918,369.178 463.6,372.41 463.6,375.65C463.592,375.65 463.585,375.65 463.577,375.65C436.636,375.65 414.467,397.819 414.467,424.76C414.467,451.701 436.636,473.87 463.577,473.87C472.204,473.87 480.681,471.597 488.15,467.28C503.326,476.042 522.084,476.042 537.26,467.28C555.887,478.038 579.516,475.357 595.26,460.7C596.11,460.7 596.96,460.77 597.82,460.77C606.444,460.777 614.918,458.503 622.38,454.18C633.343,460.536 646.361,462.384 658.66,459.33C674.354,470.914 695.524,472.095 712.41,462.33C727.586,471.092 746.344,471.092 761.52,462.33C768.989,466.647 777.466,468.92 786.093,468.92C813.034,468.92 835.203,446.751 835.203,419.81C835.203,392.869 813.034,370.7 786.093,370.7C786.085,370.7 786.078,370.7 786.07,370.7L786.07,370.75ZM561.81,375.66C561.807,373.546 561.667,371.435 561.39,369.34C562.65,368.75 563.89,368.13 565.09,367.43C567.051,368.578 569.093,369.58 571.2,370.43C568.778,372.001 566.497,373.777 564.38,375.74C563.53,375.68 562.67,375.66 561.81,375.66Z" style="fill-opacity:0.1;fill-rule:nonzero;"/>
    </g>
    <g transform="matrix(2.90251,0,0,2.68472,-1439.63,-721.871)">
        <path d="M748.79,612.2C744.97,610.68 741.1,609.14 737.02,608.62C736.61,608.62 736.2,608.54 735.78,608.51C735.78,608.09 735.78,607.68 735.83,607.27C736.05,602.27 737.6,597.11 741.1,593.5C744.6,589.89 749.47,588.11 751.75,583.85C743.415,581.408 734.785,580.113 726.1,580C723.89,580 721.54,580 719.69,581.26C717.42,582.73 716.44,585.51 715.69,588.13C713.39,596.81 711.84,605.31 709.21,613.78L708.52,613.94C699.22,615.94 687.52,614.39 683.25,606.02C684.316,601.799 685.653,597.65 687.25,593.6C692.25,581.15 699.91,569.96 707.48,558.87C712.38,551.677 717.287,544.49 722.2,537.31C714.845,535.092 707.374,533.28 699.82,531.88C698.22,531.58 696.41,531.34 695.08,532.28C694.177,533.05 693.514,534.064 693.17,535.2C685.95,552.92 677.1,572.31 674.59,591.79C673.184,591.027 671.739,590.339 670.26,589.73L647,579.81C645.769,579.397 644.657,578.689 643.76,577.75C641.64,575.12 643.76,570.94 646.86,569.54C649.96,568.14 653.47,568.54 656.86,568.24C660.25,567.94 663.99,566.71 665.25,563.57C666.71,559.96 663.92,555.88 660.51,553.99C657.1,552.1 653.09,551.57 649.51,549.99C643.933,547.382 639.903,542.288 638.65,536.26L633.1,536C640.42,529 648.01,522.29 656.73,517.14C660.94,514.65 665.4,512.54 669.32,509.61C679.81,501.567 685.295,488.545 683.72,475.42C683.22,471.66 682.15,467.77 683.34,464.17C684.34,461.24 686.6,458.99 688.83,456.86L708.92,437.64C696.133,434.728 683.03,433.438 669.92,433.8C666.6,433.9 663.17,434.12 660.2,435.62C654.78,438.36 652.2,444.56 650.08,450.25C648.465,454.258 647.158,458.383 646.17,462.59C644.69,469.69 644.91,477.47 640.9,483.5C637.72,488.28 632.43,491.1 627.68,494.32C614.146,503.538 604.04,516.986 598.95,532.55C598.63,533.55 598.09,534.83 597.47,536.26C585.7,537.26 574.17,539.5 563.28,544.08C549.59,549.84 537.64,558.99 525.91,568.08C512.99,578.08 499.4,589.27 494.86,604.99C489.81,622.44 497.6,641.58 510.07,654.79C520.27,665.58 533.21,673.18 546.26,680.01C554.79,684.47 556.21,683.56 563.7,677.56L583.84,661.42C589.59,656.82 595.44,652.1 599.35,645.86C604.74,637.27 606.07,626.36 612.6,618.59C621.54,607.94 639.77,607.05 649.72,616.76C652.58,619.56 655.07,623.22 658.97,624.15C660.87,624.61 662.97,624.35 664.71,625.15C668.03,626.73 668.53,631.15 669.71,634.59C672.96,643.86 684,648.71 693.71,647.32C703.42,645.93 711.79,639.62 718.36,632.32C720.15,630.32 721.92,628.2 724.36,627.01C726.312,626.142 728.424,625.692 730.56,625.69C737.651,625.4 744.696,626.961 751,630.22C756.87,633.22 762,637.67 768.17,640.01C780.38,644.63 794.03,640.24 805.99,635.01L748.79,612.2Z" style="fill:rgb(63,61,86);fill-rule:nonzero;"/>
    </g>
    <g transform="matrix(2.90251,0,0,2.68472,-1439.63,-721.871)">
        <path d="M748.79,612.2C744.97,610.68 741.1,609.14 737.02,608.62C736.61,608.62 736.2,608.54 735.78,608.51C735.78,608.09 735.78,607.68 735.83,607.27C736.05,602.27 737.6,597.11 741.1,593.5C744.6,589.89 749.47,588.11 751.75,583.85C743.415,581.408 734.785,580.113 726.1,580C723.89,580 721.54,580 719.69,581.26C717.42,582.73 716.44,585.51 715.69,588.13C713.39,596.81 711.84,605.31 709.21,613.78L708.52,613.94C699.22,615.94 687.52,614.39 683.25,606.02C684.316,601.799 685.653,597.65 687.25,593.6C692.25,581.15 699.91,569.96 707.48,558.87C712.38,551.677 717.287,544.49 722.2,537.31C714.845,535.092 707.374,533.28 699.82,531.88C698.22,531.58 696.41,531.34 695.08,532.28C694.177,533.05 693.514,534.064 693.17,535.2C685.95,552.92 677.1,572.31 674.59,591.79C673.184,591.027 671.739,590.339 670.26,589.73L647,579.81C645.769,579.397 644.657,578.689 643.76,577.75C641.64,575.12 643.76,570.94 646.86,569.54C649.96,568.14 653.47,568.54 656.86,568.24C660.25,567.94 663.99,566.71 665.25,563.57C666.71,559.96 663.92,555.88 660.51,553.99C657.1,552.1 653.09,551.57 649.51,549.99C643.933,547.382 639.903,542.288 638.65,536.26L633.1,536C640.42,529 648.01,522.29 656.73,517.14C660.94,514.65 665.4,512.54 669.32,509.61C679.81,501.567 685.295,488.545 683.72,475.42C683.22,471.66 682.15,467.77 683.34,464.17C684.34,461.24 686.6,458.99 688.83,456.86L708.92,437.64C696.133,434.728 683.03,433.438 669.92,433.8C666.6,433.9 663.17,434.12 660.2,435.62C654.78,438.36 652.2,444.56 650.08,450.25C648.465,454.258 647.158,458.383 646.17,462.59C644.69,469.69 644.91,477.47 640.9,483.5C637.72,488.28 632.43,491.1 627.68,494.32C614.146,503.538 604.04,516.986 598.95,532.55C598.63,533.55 598.09,534.83 597.47,536.26C585.7,537.26 574.17,539.5 563.28,544.08C549.59,549.84 537.64,558.99 525.91,568.08C512.99,578.08 499.4,589.27 494.86,604.99C489.81,622.44 497.6,641.58 510.07,654.79C520.27,665.58 533.21,673.18 546.26,680.01C554.79,684.47 556.21,683.56 563.7,677.56L583.84,661.42C589.59,656.82 595.44,652.1 599.35,645.86C604.74,637.27 606.07,626.36 612.6,618.59C621.54,607.94 639.77,607.05 649.72,616.76C652.58,619.56 655.07,623.22 658.97,624.15C660.87,624.61 662.97,624.35 664.71,625.15C668.03,626.73 668.53,631.15 669.71,634.59C672.96,643.86 684,648.71 693.71,647.32C703.42,645.93 711.79,639.62 718.36,632.32C720.15,630.32 721.92,628.2 724.36,627.01C726.312,626.142 728.424,625.692 730.56,625.69C737.651,625.4 744.696,626.961 751,630.22C756.87,633.22 762,637.67 768.17,640.01C780.38,644.63 794.03,640.24 805.99,635.01L748.79,612.2Z" style="fill-opacity:0.1;fill-rule:nonzero;"/>
    </g>
    <g transform="matrix(2.90251,0,0,2.68472,-1439.63,-721.871)">
        <path d="M585.35,489.61C585.35,465.02 559.45,445.1 527.49,445.1C495.53,445.1 469.63,465 469.63,489.61C437.63,489.61 411.77,509.53 411.77,534.12C411.77,558.71 437.67,578.62 469.63,578.62C479.586,578.663 489.442,576.619 498.56,572.62C517.017,580.577 537.963,580.577 556.42,572.62C565.538,576.619 575.394,578.663 585.35,578.62C617.35,578.62 643.21,558.7 643.21,534.12C643.21,509.54 617.31,489.61 585.35,489.61Z" style="fill:rgb(108,99,255);fill-rule:nonzero;"/>
    </g>
    <g transform="matrix(2.90251,0,0,2.68472,-1439.63,-721.871)">
        <path d="M585.35,489.61C585.35,465.02 559.45,445.1 527.49,445.1C495.53,445.1 469.63,465 469.63,489.61C437.63,489.61 411.77,509.53 411.77,534.12C411.77,558.71 437.67,578.62 469.63,578.62C479.586,578.663 489.442,576.619 498.56,572.62C517.017,580.577 537.963,580.577 556.42,572.62C565.538,576.619 575.394,578.663 585.35,578.62C617.35,578.62 643.21,558.7 643.21,534.12C643.21,509.54 617.31,489.61 585.35,489.61Z" style="fill-opacity:0.1;fill-rule:nonzero;"/>
    </g>
    <g transform="matrix(2.90251,0,0,2.68472,-1439.63,-721.871)">
        <path d="M709.44,741L676.27,725.73C673.61,724.5 670.66,722.97 669.83,720.15C669.535,718.624 669.535,717.056 669.83,715.53C670.628,707.595 668.902,699.608 664.9,692.71C662.41,688.44 659.04,684.6 657.55,679.88C654.37,669.88 660.55,659.29 660.85,648.75C661.18,638.49 655.85,628.62 648.26,621.67C646.01,619.6 643.54,617.67 641.77,615.22C636.63,608 638.77,598.22 641.21,589.59L641.84,589.01C642.31,588.55 641.96,586.58 641.1,583.66C650.688,581.103 659.727,576.813 667.77,571C670.32,569.15 672.77,567.12 675.77,565.94C679.89,564.29 684.56,564.48 688.72,562.94C696.48,560.05 700.79,551.94 704.4,544.5C712.95,526.91 721.65,508.73 722.73,489.2C715.711,483.77 707.176,480.653 698.31,480.28C696.83,480.22 695.15,480.28 694.18,481.44C693.635,482.176 693.29,483.041 693.18,483.95C690.151,497.888 684.922,511.256 677.69,523.55C674.799,528.715 671.253,533.484 667.14,537.74C662.14,542.74 656,546.47 649.96,550.18C644.88,553.29 638.08,556.32 632.31,559.89C628.31,549.61 624.66,540.23 625.13,538.79C630.152,523.108 630.347,506.274 625.69,490.48C624.53,486.56 623.05,482.69 622.69,478.61C622.33,474.53 623.14,470.51 623.46,466.45C624.09,458.4 622.86,450.33 622.91,442.25C622.97,431.31 625.37,420.53 627.76,409.85C621.113,408.662 614.345,408.299 607.61,408.77C606.282,408.775 604.977,409.119 603.82,409.77C602.14,410.86 601.51,412.96 600.94,414.88C596.49,429.79 588.42,443.4 583.63,458.21C578.84,473.02 577.81,490.37 586.72,503.13C589.89,507.66 594.32,511.76 595.02,517.24C595.39,520.14 594.63,523.05 593.87,525.88C592.52,530.95 614.24,585.43 615.45,590.46C615.45,590.6 615.53,590.72 615.56,590.85C614.88,591 614.19,591.13 613.5,591.29C612.583,605.455 607.101,618.949 597.88,629.74C596.655,626.257 595.787,622.658 595.29,619C594.54,613.5 594.61,607.83 592.9,602.55C590.34,594.67 584.16,588.63 578.76,582.36C569.037,571.044 561.359,558.12 556.07,544.17C551.994,545.683 547.817,546.909 543.57,547.84C541.32,548.34 533.57,548.35 532.35,550.36C530.47,553.36 538.87,567.31 540.53,570.52C546.38,581.81 556.24,590.63 562.03,601.95C564.444,606.974 566.441,612.188 568,617.54C571.16,627.54 574.32,637.54 576.74,647.7C573.84,650.7 571.55,654.36 569.06,657.77C560.23,669.783 548.543,679.407 535.06,685.77C533.45,686.53 531.67,687.38 530.98,689.02C530.863,689.3 530.776,689.592 530.72,689.89C525.22,686.01 520.08,681.68 516.5,676.04C514.92,673.54 513.67,670.83 511.95,668.43C506.16,660.36 496.03,656.95 487.74,651.43C484.24,649.11 480.98,646.36 477.11,644.73C472.86,642.93 468.16,642.59 463.56,642.28C459.79,642.02 445.33,639.01 443.47,642.38C440.83,647.15 449.2,654.12 452.55,655.8C458.12,658.59 464.49,659.3 470.31,661.51C475.571,663.672 480.455,666.656 484.78,670.35C486.67,671.744 488.325,673.432 489.68,675.35C491.12,677.6 491.79,680.25 493,682.63C496.88,690.26 505.27,693.75 512.78,698.24C510.787,698.327 508.826,698.77 506.99,699.55C501.4,702.09 498.8,708.38 495.16,713.33C491.91,717.72 487.63,721.23 484.05,725.33C480.47,729.43 477.49,734.56 477.76,740.01C477.93,743.46 479.32,747.23 477.49,750.16C481.7,751.98 486.88,754.16 491.44,754.71C496,755.26 500.94,754.39 504.35,751.32C505.406,750.193 506.539,749.141 507.74,748.17C510.63,746.24 514.59,746.78 517.68,748.36C520.77,749.94 523.32,752.41 526.15,754.44C534.321,760.225 544.602,762.212 554.34,759.89C556.34,759.41 559.21,759 558.59,757.08C549.973,753.058 544.321,744.504 544,735C550.407,733.777 556.991,736.198 561.08,741.28C558.3,741.4 556.46,745.14 558.08,747.42C568.818,747.206 578.808,741.786 584.84,732.9C586.525,732.21 588.328,731.854 590.149,731.854C597.829,731.854 604.149,738.174 604.149,745.854C604.149,746.096 604.143,746.338 604.13,746.58L618.59,753.72C620.86,754.84 623.27,755.99 625.8,755.82C628.33,755.65 630.91,753.61 630.72,751.09C630.5,748.2 627.03,745.25 628.93,743.09C632.33,744.61 634.93,747.61 638.42,748.92C641.91,750.23 647.05,748.48 646.86,744.76C646.706,743.521 646.226,742.344 645.47,741.35C641.56,735.393 636.362,730.389 630.26,726.71C629.81,723.44 637.26,719.85 639.52,722.29L657.84,742.48C659.265,744.217 660.952,745.722 662.84,746.94C669.39,750.73 677.57,746.94 685.13,746.94C693.31,746.94 701.68,751.6 709.29,748.63C711.29,747.86 713.29,745.97 712.72,743.91C712.27,742.43 710.78,741.66 709.44,741Z" style="fill:rgb(63,61,86);fill-rule:nonzero;"/>
    </g>
    <g transform="matrix(2.90251,0,0,2.68472,-1439.63,-721.871)">
        <path d="M758.94,364.82C758.944,359.832 758.028,354.886 756.24,350.23C772.502,344.462 783.435,328.985 783.435,311.73C783.435,289.326 765.004,270.888 742.6,270.88C742.577,248.486 724.144,230.072 701.75,230.072C682.929,230.072 666.426,243.079 662.03,261.38L660.91,261.38C660.91,261.32 660.91,261.26 660.91,261.199C660.91,238.795 642.475,220.359 620.07,220.359C600.455,220.359 583.474,234.491 579.91,253.78C572.717,248.127 563.829,245.052 554.68,245.052C532.281,245.052 513.85,263.483 513.85,285.882C513.85,285.885 513.85,285.887 513.85,285.89C491.455,285.903 473.033,304.335 473.033,326.73C473.033,340.486 479.984,353.351 491.49,360.89C490.969,363.525 490.705,366.204 490.7,368.89C490.688,368.89 490.677,368.89 490.665,368.89C468.256,368.89 449.815,387.33 449.815,409.74C449.815,432.15 468.256,450.59 490.665,450.59C497.847,450.59 504.903,448.696 511.12,445.1C523.74,452.398 539.35,452.398 551.97,445.1C567.457,454.056 587.112,451.827 600.2,439.63C600.91,439.63 601.62,439.68 602.34,439.68C609.509,439.687 616.554,437.799 622.76,434.21C631.899,439.505 642.747,441.047 653,438.51C666.044,448.157 683.654,449.149 697.7,441.03C710.317,448.327 725.923,448.327 738.54,441.03C744.747,444.613 751.79,446.5 758.957,446.5C781.362,446.5 799.797,428.064 799.797,405.66C799.797,383.261 781.369,364.827 758.97,364.82L758.94,364.82ZM572.42,368.91C572.415,367.154 572.298,365.401 572.07,363.66C573.07,363.16 574.15,362.66 575.14,362.07C576.779,363.01 578.479,363.839 580.23,364.55C578.211,365.851 576.311,367.327 574.55,368.96C573.85,368.93 573.13,368.91 572.42,368.91Z" style="fill:rgb(108,99,255);fill-rule:nonzero;"/>
    </g>
    <g transform="matrix(2.16559,0,0,2.04078,-939.146,-341.403)">
        <path d="M897.8,590.82C897.8,568.27 877.08,549.98 851.51,549.98C825.94,549.98 805.23,568.27 805.23,590.82C779.66,590.82 758.94,609.11 758.94,631.67C758.94,654.23 779.66,672.51 805.23,672.51C813.27,672.53 821.202,670.642 828.37,667C842.924,674.301 860.106,674.301 874.66,667C881.831,670.631 889.762,672.509 897.8,672.48C923.37,672.48 944.09,654.2 944.09,631.64C944.09,609.08 923.37,590.82 897.8,590.82Z" style="fill:rgb(108,99,255);fill-rule:nonzero;"/>
    </g>
    <g transform="matrix(2.90251,0,0,2.68472,-1439.63,-721.871)">
        <path d="M758.94,507.78C758.943,507.567 758.945,507.354 758.945,507.141C758.945,484.731 740.505,466.291 718.095,466.291C695.685,466.291 677.245,484.731 677.245,507.141C677.245,507.354 677.247,507.567 677.25,507.78C654.853,507.791 636.43,526.223 636.43,548.62C636.43,571.024 654.866,589.46 677.27,589.46C684.431,589.46 691.467,587.577 697.67,584C710.291,591.284 725.889,591.284 738.51,584C744.717,587.583 751.76,589.47 758.927,589.47C781.332,589.47 799.767,571.034 799.767,548.63C799.767,526.231 781.339,507.797 758.94,507.79L758.94,507.78Z" style="fill:rgb(108,99,255);fill-rule:nonzero;"/>
    </g>
    <g transform="matrix(2.90251,0,0,2.68472,-1439.63,-721.871)">
        <path d="M580.59,491.44C580.59,468.88 556.81,450.6 527.49,450.6C498.17,450.6 474.39,468.88 474.39,491.44C445.07,491.44 421.3,509.73 421.3,532.28C421.3,554.83 445.07,573.13 474.39,573.13C483.525,573.179 492.571,571.312 500.94,567.65C517.879,574.953 537.101,574.953 554.04,567.65C562.409,571.312 571.455,573.179 580.59,573.13C609.91,573.13 633.68,554.84 633.68,532.28C633.68,509.72 609.91,491.44 580.59,491.44Z" style="fill:rgb(108,99,255);fill-rule:nonzero;"/>
    </g>
    <g transform="matrix(2.53125,0,0,2.66252,-1068.38,-647.909)">
        <path d="M481.2,611.25C481.203,611.03 481.205,610.81 481.205,610.59C481.205,586.688 461.537,567.02 437.635,567.02C413.733,567.02 394.065,586.688 394.065,610.59C394.065,610.81 394.067,611.03 394.07,611.25C394.061,611.25 394.052,611.25 394.043,611.25C370.141,611.25 350.473,630.918 350.473,654.82C350.473,678.722 370.141,698.39 394.043,698.39C401.699,698.39 409.222,696.372 415.85,692.54C429.313,700.317 445.957,700.317 459.42,692.54C466.039,696.359 473.548,698.37 481.19,698.37C505.086,698.37 524.75,678.706 524.75,654.81C524.75,630.918 505.092,611.256 481.2,611.25Z" style="fill:rgb(108,99,255);fill-rule:nonzero;"/>
    </g>
    <g transform="matrix(2.53125,0,0,2.66252,-1068.38,-647.909)">
        <path d="M481.2,611.25C481.203,611.03 481.205,610.81 481.205,610.59C481.205,586.688 461.537,567.02 437.635,567.02C413.733,567.02 394.065,586.688 394.065,610.59C394.065,610.81 394.067,611.03 394.07,611.25C394.061,611.25 394.052,611.25 394.043,611.25C370.141,611.25 350.473,630.918 350.473,654.82C350.473,678.722 370.141,698.39 394.043,698.39C401.699,698.39 409.222,696.372 415.85,692.54C429.313,700.317 445.957,700.317 459.42,692.54C466.039,696.359 473.548,698.37 481.19,698.37C505.086,698.37 524.75,678.706 524.75,654.81C524.75,630.918 505.092,611.256 481.2,611.25Z" style="fill-opacity:0.1;fill-rule:nonzero;"/>
    </g>
    <g transform="matrix(2.67724,0,0,2.96719,-1202.41,-888.921)">
        <path d="M478.48,612.61C478.483,612.397 478.485,612.184 478.485,611.971C478.485,589.561 460.045,571.121 437.635,571.121C415.225,571.121 396.785,589.561 396.785,611.971C396.785,612.184 396.787,612.397 396.79,612.61C374.387,612.611 355.953,631.047 355.953,653.45C355.953,675.854 374.388,694.29 396.793,694.29C403.96,694.29 411.003,692.403 417.21,688.82C429.834,696.104 445.436,696.104 458.06,688.82C464.267,692.403 471.31,694.29 478.477,694.29C500.882,694.29 519.317,675.854 519.317,653.45C519.317,631.047 500.883,612.611 478.48,612.61Z" style="fill:rgb(108,99,255);fill-rule:nonzero;"/>
    </g>
    <g transform="matrix(2.90251,0,0,2.68472,-1439.63,-721.871)">
        <path d="M606.45,280.41C626.048,280.409 642.83,295.001 645.55,314.41C645.822,312.533 645.959,310.638 645.959,308.741C645.959,287.083 628.137,269.261 606.479,269.261C584.821,269.261 566.999,287.083 566.999,308.741C566.999,308.827 566.999,308.914 567,309C567.005,310.823 567.132,312.644 567.38,314.45C570.085,295.039 586.851,280.431 606.45,280.41Z" style="fill-opacity:0.1;fill-rule:nonzero;"/>
    </g>
    <g transform="matrix(2.90251,0,0,2.68472,-1439.63,-721.871)">
        <path d="M687.52,350.9C705.342,359.084 714.503,379.368 708.86,398.15C712.911,391.805 715.064,384.432 715.064,376.905C715.064,355.247 697.242,337.425 675.584,337.425C660.188,337.425 646.139,346.431 639.71,360.42C638.955,362.078 638.313,363.785 637.79,365.53C648.347,349.005 669.696,342.724 687.52,350.9Z" style="fill-opacity:0.1;fill-rule:nonzero;"/>
    </g>
    <g transform="matrix(2.90251,0,0,2.68472,-1439.63,-721.871)">
        <path d="M571.8,380.85C589.622,389.034 598.783,409.318 593.14,428.1C594.119,426.564 594.994,424.963 595.76,423.31C598.081,418.19 599.282,412.632 599.282,407.01C599.282,385.352 581.46,367.53 559.802,367.53C544.467,367.53 530.463,376.464 524,390.37C523.245,392.028 522.603,393.735 522.08,395.48C532.636,378.96 553.979,372.68 571.8,380.85Z" style="fill-opacity:0.1;fill-rule:nonzero;"/>
    </g>
    <g transform="matrix(2.90251,0,0,2.68472,-1439.63,-721.871)">
        <path d="M530.7,507.33C539.528,515.078 541.314,528.286 534.86,538.1C535.688,537.387 536.466,536.619 537.19,535.8C540.973,531.487 543.06,525.942 543.06,520.205C543.06,507.231 532.384,496.555 519.41,496.555C512.604,496.555 506.118,499.493 501.63,504.61C500.903,505.432 500.234,506.304 499.63,507.22C508.521,499.53 521.864,499.577 530.7,507.33Z" style="fill-opacity:0.1;fill-rule:nonzero;"/>
    </g>
    <g transform="matrix(2.16559,0,0,2.04078,-939.146,-341.403)">
        <path d="M902.37,616.25C911.198,623.988 912.988,637.19 906.54,647C907.365,646.287 908.14,645.518 908.86,644.7C912.642,640.388 914.728,634.845 914.728,629.11C914.728,616.14 904.055,605.467 891.085,605.467C884.28,605.467 877.797,608.404 873.31,613.52C872.583,614.338 871.914,615.207 871.31,616.12C880.203,608.437 893.542,608.493 902.37,616.25Z" style="fill-opacity:0.1;fill-rule:nonzero;"/>
    </g>
    <g transform="matrix(2.90251,0,0,2.68472,-1439.63,-721.871)">
        <path d="M713.94,527.41C723.351,520.354 736.668,521.338 744.94,529.7C744.415,528.743 743.824,527.824 743.17,526.95C738.729,520.784 731.578,517.122 723.98,517.122C711.006,517.122 700.33,527.798 700.33,540.772C700.33,546.03 702.083,551.14 705.31,555.29C705.964,556.166 706.679,556.995 707.45,557.77C701.769,547.494 704.554,534.465 713.94,527.41Z" style="fill-opacity:0.1;fill-rule:nonzero;"/>
    </g>
    <g transform="matrix(2.90251,0,0,2.68472,-1439.63,-721.871)">
        <path d="M671.05,704.39C668.43,702.39 668.76,697.56 668.76,697.56C668.76,697.56 673.33,696.04 675.95,698.07C678.57,700.1 679.59,703.17 678.24,704.91C676.89,706.65 673.67,706.43 671.05,704.39Z" style="fill:rgb(108,99,255);fill-rule:nonzero;"/>
    </g>
    <g transform="matrix(2.90251,0,0,2.68472,-1439.63,-721.871)">
        <path d="M680.05,757.39C677.43,755.39 677.76,750.56 677.76,750.56C677.76,750.56 682.33,749.04 684.95,751.07C687.57,753.1 688.59,756.17 687.24,757.91C685.89,759.65 682.67,759.43 680.05,757.39Z" style="fill:rgb(108,99,255);fill-rule:nonzero;"/>
    </g>
    <g transform="matrix(2.90251,0,0,2.68472,-1439.63,-721.871)">
        <path d="M671.05,762.39C668.43,760.39 668.76,755.56 668.76,755.56C668.76,755.56 673.33,754.04 675.95,756.07C678.57,758.1 679.59,761.17 678.24,762.91C676.89,764.65 673.67,764.43 671.05,762.39Z" style="fill:rgb(108,99,255);fill-rule:nonzero;"/>
    </g>
    <g transform="matrix(2.90251,0,0,2.68472,-1439.63,-721.871)">
        <path d="M733.05,723.39C730.43,721.39 730.76,716.56 730.76,716.56C730.76,716.56 735.33,715.04 737.95,717.07C740.57,719.1 741.59,722.17 740.24,723.91C738.89,725.65 735.67,725.43 733.05,723.39Z" style="fill:rgb(108,99,255);fill-rule:nonzero;"/>
    </g>
    <g transform="matrix(2.90251,0,0,2.68472,-1359.81,-494.288)">
        <circle cx="478" cy="266.47" r="25" style="fill:rgb(108,99,255);fill-opacity:0.1;"/>
    </g>
    <g transform="matrix(2.44636,0,0,2.07373,0.378541,-270.546)">
        <path d="M181,776.83C181.703,774.966 183.291,773.569 185.23,773.11C186.25,772.88 187.295,772.783 188.34,772.82C194.67,772.93 199.47,775.82 205.25,777.15C210.77,778.46 217.06,778.39 223.11,778.29C226.907,778.35 230.7,778.048 234.44,777.39C240.49,776.11 244.44,773.09 248.12,770.23" style="fill:rgb(108,99,255);fill-opacity:0.3;fill-rule:nonzero;"/>
    </g>
    <g transform="matrix(2.0475,0,0,1.83124,-415.285,-100.205)">
        <path d="M887,766.83C887.703,764.966 889.291,763.569 891.23,763.11C892.25,762.88 893.295,762.783 894.34,762.82C900.67,762.93 905.47,765.82 911.25,767.15C916.77,768.46 923.06,768.39 929.11,768.29C932.907,768.35 936.7,768.048 940.44,767.39C946.44,766.11 950.44,763.09 954.12,760.23" style="fill:rgb(108,99,255);fill-opacity:0.3;fill-rule:nonzero;"/>
    </g>
    <g transform="matrix(2.0475,0,0,1.83124,-415.285,-100.205)">
        <path d="M943,788.83C943.703,786.966 945.291,785.569 947.23,785.11C948.25,784.88 949.295,784.783 950.34,784.82C956.67,784.93 961.47,787.82 967.25,789.15C972.77,790.46 979.06,790.39 985.11,790.29C988.907,790.35 992.7,790.048 996.44,789.39C1002.44,788.11 1006.44,785.09 1010.12,782.23" style="fill:rgb(108,99,255);fill-opacity:0.3;fill-rule:nonzero;"/>
    </g>
    <g transform="matrix(2.0475,0,0,1.83124,-415.285,-100.205)">
        <path d="M896,783.88C896.331,783.327 896.9,782.958 897.54,782.88C897.916,782.812 898.298,782.785 898.68,782.8C900.99,782.8 902.74,783.63 904.85,784.02C907.008,784.334 909.191,784.445 911.37,784.35C912.751,784.366 914.132,784.279 915.5,784.09C917.288,783.78 918.991,783.098 920.5,782.09" style="fill:rgb(108,99,255);fill-opacity:0.3;fill-rule:nonzero;"/>
    </g>
    <g transform="matrix(2.0475,0,0,1.83124,-415.285,-100.205)">
        <path d="M906,772.88C906.331,772.327 906.9,771.958 907.54,771.88C907.916,771.812 908.298,771.785 908.68,771.8C910.99,771.8 912.74,772.63 914.85,773.02C917.008,773.334 919.191,773.445 921.37,773.35C922.751,773.366 924.132,773.279 925.5,773.09C927.288,772.78 928.991,772.098 930.5,771.09" style="fill:rgb(108,99,255);fill-opacity:0.3;fill-rule:nonzero;"/>
    </g>
    <g transform="matrix(2.44636,0,0,2.07373,0.378541,-270.546)">
        <path d="M282,755C282.358,754.441 282.95,754.073 283.61,754C284,753.94 284.395,753.917 284.79,753.93C287.19,753.93 289.02,754.69 291.21,755.05C293.461,755.334 295.732,755.434 298,755.35C299.437,755.363 300.873,755.283 302.3,755.11C304.137,754.831 305.903,754.199 307.5,753.25" style="fill:rgb(108,99,255);fill-opacity:0.3;fill-rule:nonzero;"/>
    </g>
    <g transform="matrix(2.44636,0,0,2.07373,0.378541,-270.546)">
        <path d="M253,756C253.358,755.441 253.95,755.073 254.61,755C255,754.94 255.395,754.917 255.79,754.93C258.19,754.93 260.02,755.69 262.21,756.05C264.461,756.334 266.732,756.434 269,756.35C270.437,756.363 271.873,756.283 273.3,756.11C275.137,755.831 276.903,755.199 278.5,754.25" style="fill:rgb(108,99,255);fill-opacity:0.3;fill-rule:nonzero;"/>
    </g>
    <g transform="matrix(2.44636,0,0,2.07373,0.378541,-270.546)">
        <path d="M240,796.83C240.703,794.966 242.291,793.569 244.23,793.11C245.25,792.88 246.295,792.783 247.34,792.82C253.67,792.93 258.47,795.82 264.25,797.15C269.77,798.46 276.06,798.39 282.11,798.29C285.907,798.35 289.7,798.048 293.44,797.39C299.49,796.11 303.44,793.09 307.12,790.23" style="fill:rgb(108,99,255);fill-opacity:0.3;fill-rule:nonzero;"/>
    </g>
    <g transform="matrix(2.56939,0,0,2.64206,-1161.4,-688.4)">
        <path d="M862.57,750.14C861.408,750.268 860.286,750.643 859.28,751.24C861.01,750.07 864.97,750.37 867,750.17C869.591,750.075 872.154,749.59 874.6,748.73C870.561,748.904 866.54,749.376 862.57,750.14Z" style="fill-opacity:0.1;fill-rule:nonzero;"/>
    </g>
    <g transform="matrix(0.61351,0,0,0.614065,710.273,1007.27)">
        <circle cx="651.309" cy="75.314" r="30.674" style="fill:rgb(47,46,65);"/>
    </g>
    <g transform="matrix(0.61351,0,0,0.614065,673.462,911.89)">
        <path d="M701.504,253.349C701.504,253.349 703.091,281.921 699.916,281.921C696.742,281.921 719.758,295.413 719.758,295.413L734.044,287.476L734.044,277.952C734.044,277.952 714.996,275.571 722.933,254.936C730.869,234.301 701.504,253.349 701.504,253.349Z" style="fill:rgb(159,97,106);fill-rule:nonzero;"/>
    </g>
    <g transform="matrix(0.61351,0,0,0.614065,710.273,1007.27)">
        <path d="M574.835,411.517L572.454,435.327L580.391,437.708L586.74,431.359L589.121,411.517L574.835,411.517Z" style="fill:rgb(159,97,106);fill-rule:nonzero;"/>
    </g>
    <g transform="matrix(0.61351,0,0,0.614065,710.273,1007.27)">
        <path d="M689.124,425.01L693.092,440.089L704.203,447.232L716.109,440.883L702.616,418.66L689.124,425.01Z" style="fill:rgb(159,97,106);fill-rule:nonzero;"/>
    </g>
    <g transform="matrix(0.61351,0,0,0.614065,710.273,1007.27)">
        <circle cx="649.044" cy="87.304" r="23.016" style="fill:rgb(159,97,106);"/>
    </g>
    <g transform="matrix(0.61351,0,0,0.614065,673.462,911.89)">
        <path d="M695.154,328.747L689.599,326.366C689.599,326.366 680.075,320.811 679.281,309.699C678.487,298.588 687.218,284.302 687.218,284.302L699.916,280.333L714.836,292.477L714.996,312.08L695.154,328.747Z" style="fill:rgb(159,97,106);fill-rule:nonzero;"/>
    </g>
    <g transform="matrix(0.61351,0,0,0.614065,673.462,911.89)">
        <path d="M689.599,285.889L686.424,284.302C686.424,284.302 670.551,283.508 668.963,302.556C667.376,321.604 661.82,353.351 661.82,353.351C661.82,353.351 649.122,375.574 649.915,399.384L643.566,420.019C643.566,420.019 634.836,450.179 645.153,450.179C655.471,450.179 654.677,417.638 654.677,417.638C654.677,417.638 673.725,371.605 675.313,363.669C676.9,355.732 690.392,318.429 686.424,308.112C682.456,297.794 689.599,285.889 689.599,285.889Z" style="fill:rgb(159,97,106);fill-rule:nonzero;"/>
    </g>
    <g transform="matrix(0.61351,0,0,0.614065,673.462,911.89)">
        <path d="M701.504,335.89L701.504,344.621C701.504,344.621 707.059,350.97 704.678,354.938C702.297,358.907 699.916,366.843 699.916,366.843L711.028,384.304L748.33,387.479L755.748,337.779L701.504,335.89Z" style="fill:rgb(159,97,106);fill-rule:nonzero;"/>
    </g>
    <g transform="matrix(0.61351,0,0,0.614065,673.462,911.89)">
        <path d="M736.425,280.333L742.774,277.159C742.774,277.159 756.267,267.635 767.378,266.047L801.506,243.031L823.729,189.855C823.729,189.855 822.935,161.283 829.284,164.458C835.634,167.632 834.84,192.236 834.84,192.236C834.84,192.236 822.935,241.444 812.617,254.936C802.3,268.428 764.997,290.651 764.997,290.651C764.997,290.651 754.679,302.556 755.473,308.112C756.267,313.668 736.425,280.333 736.425,280.333Z" style="fill:rgb(159,97,106);fill-rule:nonzero;"/>
    </g>
    <g transform="matrix(0.61351,0,0,0.614065,673.462,911.89)">
        <path d="M707.059,366.843C707.059,366.843 698.329,361.288 692.773,370.812C687.218,380.336 676.9,382.717 670.551,411.289C664.201,439.861 649.122,485.1 645.153,488.275C641.185,491.449 624.518,524.783 634.042,571.61L649.915,571.61L663.408,504.148C663.408,504.148 707.059,450.179 710.234,427.956L724.52,511.291C724.52,511.291 725.314,543.038 737.219,558.117L749.917,588.277L766.584,580.34L747.536,504.148C747.536,504.148 757.06,427.162 750.711,405.733L749.799,377.639C749.799,377.639 723.726,378.748 707.059,366.843Z" style="fill:rgb(47,46,65);fill-rule:nonzero;"/>
    </g>
    <g transform="matrix(0.61351,0,0,0.614065,673.462,911.89)">
        <path d="M640.391,586.69L630.867,586.69C629.28,586.69 616.581,597.007 622.137,602.563C627.692,608.119 636.423,618.436 636.423,618.436C636.423,618.436 667.376,622.373 668.17,616.817C668.963,611.262 654.677,599.388 654.677,599.388L650.709,586.69C650.709,586.69 642.772,577.959 640.391,586.69Z" style="fill:rgb(47,46,65);fill-rule:nonzero;"/>
    </g>
    <g transform="matrix(0.61351,0,0,0.614065,673.462,911.89)">
        <path d="M766.584,594.626C766.584,594.626 753.092,593.833 750.711,593.039C748.33,592.245 743.568,613.674 750.711,615.262C757.854,616.849 787.22,619.23 787.22,619.23C787.22,619.23 810.236,618.436 808.649,612.087C807.062,605.738 776.109,593.039 776.109,593.039C776.109,593.039 772.14,585.102 766.584,594.626Z" style="fill:rgb(47,46,65);fill-rule:nonzero;"/>
    </g>
    <g transform="matrix(0.61351,0,0,0.614065,673.462,911.89)">
        <path d="M703.885,279.54L699.916,277.159L695.154,281.127C695.154,281.127 709.44,290.651 706.266,299.381C703.091,308.112 689.599,326.366 689.599,326.366C689.599,326.366 701.504,339.859 701.504,344.621C701.504,344.621 732.457,333.509 755.473,344.621C755.473,344.621 755.473,328.747 758.648,325.573C761.822,322.398 763.41,311.287 755.473,301.763C749.882,294.754 744.84,287.325 740.393,279.54L732.457,274.778L728.369,276.074C728.369,276.074 736.425,285.095 728.488,285.889C720.552,286.683 707.853,284.302 703.885,279.54Z" style="fill:rgb(108,99,255);fill-rule:nonzero;"/>
    </g>
    <g transform="matrix(0.61351,0,0,0.614065,673.462,911.89)">
        <path d="M733.728,178.347C731.031,181.356 727.336,183.291 723.328,183.795C716.394,184.785 721.842,195.68 721.842,195.68C721.842,195.68 719.861,191.718 723.823,188.252C727.785,184.785 733.728,182.804 733.728,178.347Z" style="fill:rgb(47,46,65);fill-rule:nonzero;"/>
    </g>
    <g transform="matrix(0.61351,0,0,0.614065,710.273,1007.27)">
        <circle cx="660.36" cy="42.628" r="8.549" style="fill:rgb(47,46,65);"/>
    </g>
    <g transform="matrix(0.61351,0,0,0.614065,673.462,911.89)">
        <path d="M730.34,206.376C723.736,202.926 712.375,200.213 706.339,200.407L707.866,194.569C713.21,198.2 724.511,200.964 731.867,200.538L730.34,206.376Z" style="fill:rgb(108,99,255);fill-rule:nonzero;"/>
    </g>
    <g transform="matrix(0.61351,0,0,0.614065,673.462,911.89)">
        <path d="M716.696,206.89C716.696,206.89 706.289,220.27 685.476,223.243C664.662,226.217 681.016,258.924 681.016,258.924C681.016,258.924 675.069,247.031 686.962,236.624C698.856,226.217 716.696,220.27 716.696,206.89Z" style="fill:rgb(47,46,65);fill-rule:nonzero;"/>
    </g>
    <g transform="matrix(0.61351,0,0,0.614065,673.462,911.89)">
        <path d="M717.49,206.096C717.49,206.096 723.437,226.91 732.357,229.883C741.277,232.857 736.817,264.077 721.95,267.051C721.95,267.051 734.587,249.954 727.154,236.573C719.72,223.193 715.26,212.786 717.49,206.096Z" style="fill:rgb(47,46,65);fill-rule:nonzero;"/>
    </g>
    <g transform="matrix(0.61351,0,0,0.614065,710.273,1007.27)">
        <rect x="742.696" y="15.873" width="54.763" height="6.349" style="fill:rgb(47,46,65);"/>
    </g>
    <g transform="matrix(0.61351,0,0,0.614065,710.273,1007.27)">
        <ellipse cx="797.46" cy="19.048" rx="4.762" ry="19.048" style="fill:rgb(47,46,65);"/>
    </g>
    <g transform="matrix(0.61351,0,0,0.614065,710.273,1007.27)">
        <ellipse cx="742.696" cy="19.048" rx="4.762" ry="19.048" style="fill:rgb(47,46,65);"/>
    </g>
    <g transform="matrix(0.61351,0,0,0.614065,710.273,1007.27)">
        <rect x="770.475" y="442.882" width="54.763" height="6.349" style="fill:rgb(47,46,65);"/>
    </g>
    <g transform="matrix(0.61351,0,0,0.614065,710.273,1007.27)">
        <ellipse cx="825.238" cy="446.057" rx="4.762" ry="19.048" style="fill:rgb(47,46,65);"/>
    </g>
    <g transform="matrix(0.61351,0,0,0.614065,710.273,1007.27)">
        <ellipse cx="770.475" cy="446.057" rx="4.762" ry="19.048" style="fill:rgb(47,46,65);"/>
    </g>
    <g transform="matrix(0.676745,0,0,0.620401,584.005,914.252)">
        <path d="M483.63,436.467C483.63,436.467 489.915,390.374 500.391,402.945C510.867,415.516 500.391,434.372 500.391,434.372L492.01,444.848L483.63,438.562L483.63,436.467Z" style="fill:rgb(255,184,184);fill-rule:nonzero;"/>
    </g>
    <g transform="matrix(0.676745,0,0,0.620401,584.005,914.252)">
        <path d="M458.488,451.133C458.488,451.133 479.439,428.087 483.63,432.277C487.82,436.467 500.391,438.562 498.296,446.943C496.201,455.324 452.202,482.561 452.202,482.561L458.488,451.133Z" style="fill:rgb(108,99,255);fill-rule:nonzero;"/>
    </g>
    <g transform="matrix(0.676745,0,0,0.620401,584.005,914.252)">
        <path d="M458.488,451.133C458.488,451.133 479.439,428.087 483.63,432.277C487.82,436.467 500.391,438.562 498.296,446.943C496.201,455.324 452.202,482.561 452.202,482.561L458.488,451.133Z" style="fill-opacity:0.1;fill-rule:nonzero;"/>
    </g>
    <g transform="matrix(0.676745,0,0,0.620401,584.005,914.252)">
        <path d="M339.064,449.038L339.064,465.799C339.064,465.799 336.969,503.512 349.539,501.417C362.11,499.322 355.825,467.895 355.825,467.895L353.73,449.038L339.064,449.038Z" style="fill:rgb(255,184,184);fill-rule:nonzero;"/>
    </g>
    <g transform="matrix(0.676745,0,0,0.620401,584.005,914.252)">
        <path d="M345.349,570.557C345.349,570.557 326.493,599.89 320.207,601.985C313.922,604.08 280.399,622.936 276.209,641.793L246.877,679.506L261.543,698.362C261.543,698.362 328.588,627.127 347.444,620.841C366.301,614.556 385.157,583.128 385.157,583.128L345.349,570.557Z" style="fill:rgb(255,184,184);fill-rule:nonzero;"/>
    </g>
    <g transform="matrix(0.676745,0,0,0.620401,584.005,914.252)">
        <path d="M494.105,522.369C494.105,522.369 533.913,528.654 527.628,553.796C521.342,578.938 460.583,631.317 460.583,631.317L458.488,643.888L435.441,648.078L424.965,637.602L427.06,631.317C427.06,631.317 452.202,608.27 454.297,599.89C456.393,591.509 479.439,557.986 489.915,555.891L475.249,547.511L494.105,522.369Z" style="fill:rgb(255,184,184);fill-rule:nonzero;"/>
    </g>
    <g transform="matrix(0.676745,0,0,0.620401,584.005,914.252)">
        <path d="M253.162,679.506C253.162,679.506 261.543,666.935 248.972,669.03C236.401,671.125 228.02,673.22 228.02,681.601C228.02,689.981 238.496,748.646 251.067,744.456C263.638,740.265 253.162,721.409 253.162,721.409C253.162,721.409 259.448,704.648 263.638,702.552C267.828,700.457 267.828,689.981 263.638,689.981C259.448,689.981 251.067,683.696 253.162,679.506Z" style="fill:rgb(47,46,65);fill-rule:nonzero;"/>
    </g>
    <g transform="matrix(0.676745,0,0,0.620401,584.005,914.252)">
        <path d="M431.251,633.412C431.251,633.412 431.251,622.936 422.87,633.412C414.489,643.888 410.299,652.269 418.68,658.554C427.06,664.84 456.393,679.506 456.393,679.506C456.393,679.506 487.82,685.791 483.63,671.125C483.63,671.125 462.678,660.649 462.678,652.269C462.678,643.888 462.678,629.222 456.393,633.412C450.107,637.602 431.251,639.698 431.251,633.412Z" style="fill:rgb(47,46,65);fill-rule:nonzero;"/>
    </g>
    <g transform="matrix(0.676745,0,0,0.620401,584.005,914.252)">
        <path d="M391.443,476.275C391.443,476.275 362.11,480.466 364.206,522.369C364.206,522.369 326.493,560.082 336.969,572.653C347.444,585.223 370.491,608.27 378.872,601.985C387.252,595.699 412.394,547.511 412.394,547.511C412.394,547.511 471.059,568.462 481.534,557.986C492.01,547.511 502.486,522.369 502.486,522.369L450.107,495.132L391.443,476.275Z" style="fill:rgb(47,46,65);fill-rule:nonzero;"/>
    </g>
    <g transform="matrix(0.676745,0,0,0.620401,624.61,1010.62)">
        <circle cx="413.154" cy="176.379" r="25.142" style="fill:rgb(255,184,184);"/>
    </g>
    <g transform="matrix(0.676745,0,0,0.620401,584.005,914.252)">
        <path d="M454.297,333.804C454.297,333.804 439.631,356.851 435.441,358.946C431.251,361.042 464.773,381.993 464.773,381.993C464.773,381.993 464.773,354.756 475.249,348.471L454.297,333.804Z" style="fill:rgb(255,184,184);fill-rule:nonzero;"/>
    </g>
    <g transform="matrix(0.676745,0,0,0.620401,584.005,914.252)">
        <path d="M452.202,356.851C452.202,356.851 418.68,346.375 412.394,363.137C406.109,379.898 391.443,411.325 393.538,432.277C395.633,453.228 399.823,449.038 393.538,455.324C387.252,461.609 383.062,457.419 385.157,465.799C387.252,474.18 389.347,474.18 387.252,478.37C385.157,482.561 412.394,497.227 435.441,499.322L458.488,501.417C458.488,501.417 458.488,463.704 462.678,455.324C466.868,446.943 475.249,430.182 475.249,423.896L475.249,407.265C475.249,396.197 472.36,385.318 466.868,375.708C461.377,366.097 454.297,356.851 452.202,356.851Z" style="fill:rgb(108,99,255);fill-rule:nonzero;"/>
    </g>
    <g transform="matrix(0.676745,0,0,0.620401,584.005,914.252)">
        <path d="M427.06,365.232C427.06,365.232 349.539,371.517 341.159,392.469C332.778,413.42 328.588,455.324 336.969,455.324C345.349,455.324 355.825,459.514 357.92,455.324C360.015,451.133 368.396,409.23 370.491,409.23C372.586,409.23 435.441,402.945 435.441,402.945C435.441,402.945 462.678,369.422 427.06,365.232Z" style="fill:rgb(108,99,255);fill-rule:nonzero;"/>
    </g>
    <g transform="matrix(0.676745,0,0,0.620401,584.005,914.252)">
        <path d="M474.164,325.476C474.164,325.476 480.836,313.882 489.176,323.953C497.516,334.024 511.083,315.516 509,311.567C506.917,307.618 499.562,311.745 486.958,307.625C474.353,303.504 450.073,295.11 446.007,322.492C441.94,349.874 451.625,347.003 451.625,347.003C451.625,347.003 456.064,322.74 460.076,329.709L464.089,336.679L467.569,337.535L474.164,325.476Z" style="fill:rgb(47,46,65);fill-rule:nonzero;"/>
    </g>
    <g transform="matrix(0.711627,0,0,0.717595,439.64,855.841)">
        <path d="M1140,707.811C1140,675.644 1123.68,649.567 1103.54,649.567C1090.89,649.567 1079.74,659.873 1073.21,675.513C1071,674.596 1068.63,674.121 1066.24,674.115C1060.14,674.115 1054.51,677.238 1049.91,682.523C1044.02,663.022 1031.53,649.567 1017.07,649.567C1003.54,649.567 991.749,661.338 985.456,678.807C981.96,675.857 977.552,674.199 972.978,674.115C957.526,674.115 945,694.127 945,718.813C944.936,727.042 946.432,735.209 949.408,742.881L1132.65,742.881C1137.26,733.125 1140,720.98 1140,707.811Z" style="fill:rgb(108,99,255);fill-rule:nonzero;"/>
    </g>
</svg>
